<svg xmlns="http://www.w3.org/2000/svg" viewBox="0 0 512 512"><path d="M490.4 137.7c0-1-.1-2-.5-3l-.5-.7-1-1.4c-.7-1-1.5-1.9-2.5-2.6l-.6-.6-224-128a10.6 10.6 0 00-10.6 0l-224 128c-.2.2-.3.5-.6.6-1 .8-1.9 1.6-2.6 2.7l-.9 1.3-.5.7c-.5 1.2-.6 2.4-.6 3.6l-.2.4v234.7l.2.6c.1 1.5.3 3 1 4.3l.2.2c.3.5.8.8 1.2 1.3.8 1 1.5 2 2.6 2.6l.2.2 224 128a10.8 10.8 0 0010.6 0l224-128 .3-.2c1-.6 1.6-1.5 2.4-2.4.4-.5 1-1 1.3-1.5l.1-.2c.6-1 .7-2.3.9-3.5 0-.5.4-1 .4-1.4V138.7c0-.4-.3-.7-.3-1zm-34.9-.7l-78.2 31.3-86-125.2L455.4 137zM256 29.5l97 141.2H159l97-141.2zm-35.3 13.6l-86 125.2L56.5 137 220.7 43zm-178 111.3l80.7 32.4-80.7 145.4V154.4zm96 49L237 382.2l-187.8-18 89.4-160.8zM245.2 483l-165-94.4 165 15.6V483zM256 372.5L156.7 192h198.6L256 372.5zM266.7 483v-78.6l165-15.7-165 94.3zm8.3-100.6l98.4-179 89.4 161-187.8 18zm194.3-50.2l-80.8-145.4 80.8-32.4v177.8z"/></svg>
